<svg xmlns="http://www.w3.org/2000/svg" viewBox="0 0 140 140">
  <path fill="#5A5A5A" d="M69.9 2c37.7 0 68 30.4 68.1 68 0 37.6-30.4 68.1-68.1 68.1C32.3 138 1.9 107.7 2 70 2.1 32.3 32.3 2.1 69.9 2zm54 81.1c5.4-19.9-1.3-44.9-22.2-59.5-19.7-13.7-47-13.6-67 2.8-18.6 15.2-23.5 38.8-18.4 57-2.6-16.9 1.3-32.2 12.7-45.2 11.4-13 26.1-19.2 43.3-18.6 14.6.5 27.1 6.2 37.1 16.8 12.5 13.2 16.9 29 14.5 46.7zm-2.3-3.7c1.9-16.1-4.4-35.5-21.4-47.7C82.4 19.1 59.3 19 41.7 30.5c-18.2 11.9-25.4 32.1-23.3 49 .1-9.4 2.4-18.2 7.2-26.3 4.8-8.1 11.3-14.4 19.6-19 8.3-4.5 17.1-6.7 26.5-6.3 12.8.5 24.1 5.1 33.5 13.9 10.9 10.2 16.2 23 16.4 37.6zM21.3 75.1c2.8-11.1 8.6-20.3 17.5-27.4 8.9-7.1 19.2-10.8 30.6-10.9 11.7-.1 22.3 3.4 31.5 10.6 9.2 7.2 15.1 16.6 17.9 28-1.6-23.7-22.4-46.2-51.2-44.9-27.2 1.3-45 23.5-46.3 44.6zm16-21.2C47.4 64 54.3 76 57.6 89.8c3.4 13.9 2.8 27.6-1.6 41.2 15.2-23.7 9.9-59.7-18.7-77.1zm46.7 77c-4.3-13.6-4.9-27.3-1.5-41.2 3.4-13.9 10.2-25.8 20.4-35.9-26.7 15.5-35.3 51.3-18.9 77.1zM78.3 70c0-4.6-3.7-8.3-8.3-8.3-4.6 0-8.3 3.7-8.3 8.3 0 4.6 3.7 8.3 8.3 8.3 4.6 0 8.3-3.7 8.3-8.3z"/>
</svg>
